<svg width="400" height="400" viewBox="0 0 400 400" fill="none" xmlns="http://www.w3.org/2000/svg">
<circle cx="200" cy="200" r="200" fill="#221C31"/>
<path d="M97.8823 199.5C97.8823 177.011 116.14 158.775 138.656 158.775C161.172 158.775 179.43 177.011 179.43 199.5H257.313C257.284 134.061 204.174 81 138.642 81C73.1105 81 20 134.061 20 199.5C20 264.939 73.1246 318 138.642 318V240.211C116.126 240.211 97.8682 221.975 97.8682 199.486L97.8823 199.5Z" fill="#E9E0C2"/>
<path d="M260.358 318C228.635 318 199.86 305.552 178.57 285.288V318H260.358C324.86 318 377.308 266.587 378.929 202.542C377.308 266.573 324.86 317.986 260.358 317.986V318Z" fill="#987701"/>
<path d="M244.793 82.0421C250.489 86.9989 255.691 92.505 260.344 98.4476V81C255.071 81 249.882 81.3802 244.793 82.0421Z" fill="#987701"/>
<path d="M260.358 81V98.4617C275.345 117.599 284.566 141.44 285.426 167.407C294.985 174.857 301.132 186.46 301.132 199.514C301.132 222.003 282.874 240.239 260.358 240.239H178.57V285.316C199.845 305.566 228.635 318.028 260.358 318.028C324.86 318.028 377.294 266.615 378.929 202.584C378.958 201.57 379 200.556 379 199.528C379 134.061 325.875 81 260.358 81Z" fill="#987701"/>
</svg>
