<svg width="359" height="238" viewBox="0 0 359 238" fill="none" xmlns="http://www.w3.org/2000/svg">
<path d="M77.8823 118.5C77.8823 96.0111 96.1403 77.7749 118.656 77.7749C141.172 77.7749 159.43 96.0111 159.43 118.5H237.312C237.284 53.061 184.174 0 118.642 0C53.1105 0 0 53.061 0 118.5C0 183.939 53.1246 237 118.642 237V159.211C96.1262 159.211 77.8682 140.975 77.8682 118.486L77.8823 118.5Z" fill="#E9E0C2"/>
<path d="M240.358 237C208.635 237 179.86 224.552 158.57 204.288V237H240.358C304.86 237 357.308 185.587 358.929 121.542C357.308 185.573 304.86 236.986 240.358 236.986V237Z" fill="#987701"/>
<path d="M224.793 1.04207C230.489 5.99893 235.691 11.505 240.344 17.4476V0C235.071 0 229.882 0.380214 224.793 1.04207Z" fill="#987701"/>
<path d="M240.358 0V17.4617C255.345 36.5991 264.566 60.4399 265.426 86.4071C274.985 93.8565 281.132 105.46 281.132 118.514C281.132 141.003 262.874 159.239 240.358 159.239H158.57V204.316C179.845 224.566 208.635 237.028 240.358 237.028C304.86 237.028 357.294 185.615 358.93 121.584C358.958 120.57 359 119.556 359 118.528C359 53.061 305.875 0 240.358 0Z" fill="#987701"/>
</svg>
