<svg width="94" height="107" viewBox="0 0 94 107" fill="none" xmlns="http://www.w3.org/2000/svg">
<path d="M20.3666 31.0905C20.3666 25.1901 25.1411 20.4055 31.0291 20.4055C36.9171 20.4055 41.6917 25.1901 41.6917 31.0905H62.0583C62.0509 13.9214 48.1623 0 31.0254 0C13.8886 0 0 13.9214 0 31.0905C0 48.2595 13.8923 62.181 31.0254 62.181V41.7717C25.1374 41.7717 20.3629 36.9871 20.3629 31.0868L20.3666 31.0905Z" fill="#E9E0C2"/>
<path d="M62.9373 62.1736C54.6318 62.1736 47.0978 58.9079 41.5238 53.5919V62.1736H62.9373C79.8252 62.1736 93.557 48.686 93.9815 31.8847C93.557 48.6823 79.8252 62.1699 62.9373 62.1699V62.1736Z" fill="#987701"/>
<path d="M58.8621 0.273372C60.3534 1.57373 61.7155 3.01817 62.9336 4.57713V0C61.5531 0 60.1947 0.0997437 58.8621 0.273372Z" fill="#987701"/>
<path d="M62.9373 0V4.58082C66.8612 9.60125 69.2754 15.8556 69.5005 22.6677C72.0033 24.6219 73.6127 27.6659 73.6127 31.0905C73.6127 36.9901 68.8324 41.7741 62.9373 41.7741H41.5238V53.5993C47.0941 58.9116 54.6318 62.181 62.9373 62.181C79.8252 62.181 93.5533 48.6934 93.9815 31.8958C93.9889 31.6298 94 31.3638 94 31.0942C94 13.9198 80.091 0 62.9373 0Z" fill="#987701"/>
<path d="M7.24508 85.6634C6.41763 85.6634 5.63886 85.5008 4.90876 85.1757C4.17867 84.8506 3.5378 84.4117 2.98618 83.8589C2.43455 83.3062 2.0046 82.6885 1.69634 82.0057C1.38807 81.3067 1.23394 80.5833 1.23394 79.8355C1.23394 79.1202 1.37996 78.4211 1.672 77.7384C1.98026 77.0556 2.4021 76.4379 2.9375 75.8851C3.47291 75.3324 4.10566 74.8935 4.83575 74.5684C5.58208 74.2432 6.3933 74.0807 7.26941 74.0807C8.04818 74.0807 8.76206 74.2107 9.41103 74.4708C10.06 74.7309 10.5792 75.0886 10.9686 75.5438C11.358 75.9827 11.5526 76.4948 11.5526 77.08C11.5526 77.649 11.3661 78.096 10.9929 78.4211C10.636 78.73 10.1817 78.8845 9.63006 78.8845C9.11088 78.8845 8.68905 78.7381 8.36456 78.4455C8.04007 78.1529 7.87783 77.7628 7.87783 77.2751C7.87783 76.9499 7.93461 76.7061 8.04818 76.5435C8.17798 76.381 8.29966 76.2346 8.41323 76.1046C8.5268 75.9745 8.58359 75.812 8.58359 75.6169C8.58359 75.3731 8.47002 75.1861 8.24288 75.0561C8.03196 74.926 7.73992 74.861 7.36676 74.861C6.89625 74.861 6.48253 74.9992 6.12559 75.2755C5.76866 75.5519 5.49284 76.0721 5.29815 76.8361C5.10346 77.6002 5.00611 78.73 5.00611 80.2256C5.00611 81.4286 5.07912 82.3715 5.22514 83.0542C5.38738 83.7208 5.64697 84.1841 6.00391 84.4442C6.37707 84.7043 6.8638 84.8343 7.46411 84.8343C8.34022 84.8343 9.07843 84.5905 9.67873 84.1028C10.2953 83.6151 10.8226 82.8266 11.2606 81.7375H12.0637C11.7392 82.9079 11.1633 83.8589 10.3358 84.5905C9.5246 85.3057 8.49435 85.6634 7.24508 85.6634Z" fill="#E9E0C2"/>
<path d="M28.9419 85.6634C28.0982 85.6634 27.3113 85.5252 26.5812 85.2489C25.8511 84.9725 25.2103 84.5742 24.6587 84.054C24.107 83.5338 23.669 82.9242 23.3445 82.2252C23.0362 81.5099 22.8821 80.7214 22.8821 79.8598C22.8821 79.0145 23.0362 78.2423 23.3445 77.5433C23.669 76.828 24.107 76.2184 24.6587 75.7144C25.2103 75.1942 25.8511 74.796 26.5812 74.5196C27.3113 74.227 28.0982 74.0807 28.9419 74.0807C29.7856 74.0807 30.5724 74.227 31.3025 74.5196C32.0326 74.796 32.6735 75.1942 33.2251 75.7144C33.793 76.2184 34.231 76.828 34.5393 77.5433C34.8638 78.2423 35.026 79.0145 35.026 79.8598C35.026 80.7214 34.8638 81.5099 34.5393 82.2252C34.231 82.9242 33.793 83.5338 33.2251 84.054C32.6735 84.5742 32.0326 84.9725 31.3025 85.2489C30.5724 85.5252 29.7856 85.6634 28.9419 85.6634ZM28.9419 84.8099C29.5097 84.8099 29.964 84.6799 30.3047 84.4198C30.6455 84.1597 30.8888 83.6801 31.0348 82.9811C31.1809 82.2658 31.2539 81.2335 31.2539 79.8842C31.2539 78.5349 31.1809 77.5027 31.0348 76.7874C30.8888 76.0721 30.6455 75.5844 30.3047 75.3243C29.964 75.0642 29.5097 74.9341 28.9419 74.9341C28.374 74.9341 27.9198 75.0642 27.579 75.3243C27.2546 75.5844 27.0193 76.0721 26.8733 76.7874C26.7273 77.5027 26.6543 78.5349 26.6543 79.8842C26.6543 81.2335 26.7273 82.2658 26.8733 82.9811C27.0193 83.6801 27.2546 84.1597 27.579 84.4198C27.9198 84.6799 28.374 84.8099 28.9419 84.8099Z" fill="#E9E0C2"/>
<path d="M47.5805 84.9806V67.3505H50.9389V84.9806H47.5805ZM45.6092 85.3464V84.6149H52.7642V85.3464H45.6092ZM45.6092 67.6919V66.9603H50.9389V67.6919H45.6092Z" fill="#E9E0C2"/>
<path d="M64.5942 84.9806V74.7634H67.9527V84.9806H64.5942ZM62.623 85.3464V84.6149H69.5345V85.3464H62.623ZM62.623 75.1048V74.3733H67.9527V75.1048H62.623ZM66.0788 71.5447C65.5596 71.5447 65.1053 71.3496 64.7159 70.9594C64.3265 70.5693 64.1318 70.1141 64.1318 69.5939C64.1318 69.0574 64.3265 68.5941 64.7159 68.204C65.1053 67.8138 65.5596 67.6187 66.0788 67.6187C66.6142 67.6187 67.0766 67.8138 67.4659 68.204C67.8553 68.5941 68.05 69.0574 68.05 69.5939C68.05 70.1141 67.8553 70.5693 67.4659 70.9594C67.0766 71.3496 66.6142 71.5447 66.0788 71.5447Z" fill="#E9E0C2"/>
<path d="M88.7199 84.9806V76.3728C88.7199 75.56 88.3549 75.1536 87.6248 75.1536C87.0894 75.1536 86.6027 75.3731 86.1646 75.812C85.7265 76.2509 85.3777 76.8524 85.1181 77.6164C84.8585 78.3643 84.7287 79.2177 84.7287 80.1768L84.242 76.3972H84.8261C85.1506 75.6819 85.613 75.1211 86.2133 74.7147C86.8298 74.292 87.6086 74.0807 88.5496 74.0807C89.6042 74.0807 90.456 74.3408 91.1049 74.861C91.7539 75.3649 92.0784 75.9908 92.0784 76.7386V84.9806H88.7199ZM79.399 85.3464V84.6149H86.3106V85.3464H79.399ZM81.3703 84.9806V74.7634H84.7287V84.9806H81.3703ZM87.0651 85.3464V84.6149H93.6116V85.3464H87.0651ZM79.399 75.1048V74.3733H84.7287V75.1048H79.399Z" fill="#E9E0C2"/>
<path d="M6.36078 106.976C5.50089 106.976 4.68156 106.74 3.90279 106.268C3.12402 105.781 2.48315 105.106 1.9802 104.245C1.49347 103.367 1.2501 102.351 1.2501 101.196C1.2501 100.042 1.49347 99.0343 1.9802 98.1727C2.46693 97.2949 3.09968 96.6202 3.87845 96.1488C4.65722 95.6611 5.47655 95.4173 6.33644 95.4173C7.09899 95.4173 7.76419 95.5798 8.33204 95.905C8.91612 96.2301 9.33796 96.6365 9.59755 97.1242H10.1816L9.69489 100.831C9.69489 99.2863 9.42719 98.1565 8.89178 97.4412C8.3726 96.7259 7.7074 96.3683 6.89619 96.3683C6.45813 96.3683 6.10119 96.4983 5.82538 96.7584C5.54956 97.0185 5.34676 97.4981 5.21696 98.1971C5.08717 98.8962 5.02227 99.904 5.02227 101.221C5.02227 102.521 5.07905 103.521 5.19263 104.22C5.32242 104.919 5.52523 105.399 5.80104 105.659C6.07685 105.903 6.43379 106.025 6.87185 106.025C7.68307 106.025 8.35638 105.667 8.89178 104.952C9.42719 104.236 9.69489 103.107 9.69489 101.562L10.1816 105.269H9.59755C9.33796 105.756 8.92423 106.163 8.35638 106.488C7.78853 106.813 7.12333 106.976 6.36078 106.976ZM9.69489 106.683V105.951H15.0246V106.683H9.69489ZM9.69489 106.317V88.6871H13.0533V106.317H9.69489ZM7.28557 89.0285V88.2969H13.0533V89.0285H7.28557Z" fill="#E9E0C2"/>
<path d="M26.0213 107C25.0316 107 24.2366 106.74 23.6363 106.22C23.0522 105.683 22.7602 105.041 22.7602 104.293V96.0757H26.1187V103.976C26.1187 104.643 26.2079 105.114 26.3864 105.391C26.5811 105.667 26.8731 105.805 27.2625 105.805C27.8141 105.805 28.2927 105.602 28.6983 105.196C29.1039 104.773 29.4203 104.204 29.6475 103.489C29.8908 102.773 30.0125 101.977 30.0125 101.099L30.4992 104.757H29.9152C29.6231 105.423 29.1121 105.968 28.382 106.39C27.6681 106.797 26.8812 107 26.0213 107ZM30.0125 106.683V105.951H35.2935V106.683H30.0125ZM20.862 96.4414V95.7099H26.1187V96.4414H20.862ZM30.0125 106.317V96.0757H33.371V106.317H30.0125ZM28.0169 96.4414V95.7099H33.371V96.4414H28.0169Z" fill="#E9E0C2"/>
<path d="M50.4621 106.317V97.7094C50.4621 96.8966 50.097 96.4902 49.3669 96.4902C48.8315 96.4902 48.3448 96.7097 47.9067 97.1486C47.4687 97.5875 47.1199 98.189 46.8603 98.9531C46.6007 99.7009 46.4709 100.554 46.4709 101.513L45.9842 97.7338H46.5682C46.8927 97.0185 47.3551 96.4577 47.9554 96.0513C48.5719 95.6286 49.3507 95.4173 50.2917 95.4173C51.3463 95.4173 52.1981 95.6774 52.8471 96.1976C53.496 96.7015 53.8205 97.3274 53.8205 98.0752V106.317H50.4621ZM41.1412 106.683V105.951H48.0528V106.683H41.1412ZM43.1124 106.317V96.1H46.4709V106.317H43.1124ZM48.8072 106.683V105.951H55.3537V106.683H48.8072ZM41.1412 96.4414V95.7099H46.4709V96.4414H41.1412Z" fill="#E9E0C2"/>
<path d="M70.5217 106.317V97.7094C70.5217 96.8966 70.1566 96.4902 69.4265 96.4902C68.8911 96.4902 68.4044 96.7097 67.9663 97.1486C67.5283 97.5875 67.1795 98.189 66.9199 98.9531C66.6603 99.7009 66.5305 100.554 66.5305 101.513L66.0438 97.7338H66.6278C66.9523 97.0185 67.4147 96.4577 68.015 96.0513C68.6316 95.6286 69.4103 95.4173 70.3513 95.4173C71.4059 95.4173 72.2577 95.6774 72.9067 96.1976C73.5556 96.7015 73.8801 97.3274 73.8801 98.0752V106.317H70.5217ZM61.2008 106.683V105.951H68.1124V106.683H61.2008ZM63.172 106.317V96.1H66.5305V106.317H63.172ZM68.8668 106.683V105.951H75.4133V106.683H68.8668ZM61.2008 96.4414V95.7099H66.5305V96.4414H61.2008Z" fill="#E9E0C2"/>
<path d="M87.953 107C87.1093 107 86.3143 106.837 85.568 106.512C84.8379 106.187 84.1889 105.748 83.621 105.196C83.0694 104.643 82.6395 104.017 82.3312 103.318C82.0229 102.619 81.8688 101.887 81.8688 101.123C81.8688 100.18 82.1122 99.2782 82.5989 98.4166C83.0856 97.5387 83.7752 96.8235 84.6675 96.2707C85.5599 95.7018 86.6063 95.4173 87.8069 95.4173C88.7804 95.4173 89.6484 95.6123 90.4109 96.0025C91.1897 96.3927 91.7981 96.9535 92.2362 97.6851C92.6905 98.4003 92.9176 99.2538 92.9176 100.245V100.514H84.4728V99.7821H89.4862V98.2947C89.4862 96.8966 88.9021 96.1976 87.7339 96.1976C87.231 96.1976 86.8254 96.352 86.5171 96.6609C86.2088 96.9698 85.9817 97.4981 85.8357 98.2459C85.7059 98.9774 85.641 99.9853 85.641 101.27C85.641 102.586 85.714 103.602 85.86 104.318C86.006 105.017 86.2575 105.496 86.6144 105.756C86.9714 106.016 87.4581 106.147 88.0746 106.147C88.9345 106.147 89.7133 105.935 90.4109 105.513C91.1248 105.09 91.717 104.358 92.1875 103.318H92.9906C92.6499 104.44 92.0253 105.334 91.1167 106C90.2244 106.667 89.1698 107 87.953 107Z" fill="#E9E0C2"/>
</svg>
