<svg width="17" height="17" viewBox="0 0 17 17" fill="none" xmlns="http://www.w3.org/2000/svg">
<circle cx="8.53967" cy="8.53967" r="8" fill="#221C31"/>
<path d="M4.45501 8.51966C4.45501 7.62011 5.18533 6.89066 6.08597 6.89066C6.98661 6.89066 7.71693 7.62011 7.71693 8.51966H10.8322C10.8311 5.9021 8.70667 3.77966 6.08541 3.77966C3.46414 3.77966 1.33972 5.9021 1.33972 8.51966C1.33972 11.1372 3.46471 13.2597 6.08541 13.2597V10.1481C5.18477 10.1481 4.45445 9.41866 4.45445 8.5191L4.45501 8.51966Z" fill="#E9E0C2"/>
<path d="M10.954 13.2597C9.6851 13.2597 8.53407 12.7617 7.6825 11.9512V13.2597H10.954C13.5341 13.2597 15.632 11.2032 15.6969 8.64136C15.632 11.2026 13.5341 13.2591 10.954 13.2591V13.2597Z" fill="#987701"/>
<path d="M10.3314 3.82135C10.5593 4.01962 10.7674 4.23986 10.9535 4.47757V3.77966C10.7425 3.77966 10.535 3.79487 10.3314 3.82135Z" fill="#987701"/>
<path d="M10.954 3.77966V4.47813C11.5535 5.24363 11.9223 6.19726 11.9567 7.23595C12.3391 7.53392 12.585 7.99807 12.585 8.52023C12.585 9.41978 11.8546 10.1492 10.954 10.1492H7.6825V11.9523C8.5335 12.7623 9.6851 13.2608 10.954 13.2608C13.5341 13.2608 15.6314 11.2043 15.6969 8.64302C15.698 8.60246 15.6997 8.56191 15.6997 8.52079C15.6997 5.9021 13.5747 3.77966 10.954 3.77966Z" fill="#987701"/>
</svg>
