<svg width="638" height="352" viewBox="0 0 638 352" fill="none" xmlns="http://www.w3.org/2000/svg">
<g clip-path="url(#clip0_601_190)">
<path d="M66.9498 176.279C66.9498 156.868 82.6447 141.128 102 141.128C121.355 141.128 137.05 156.868 137.05 176.279H204C203.976 119.797 158.321 74 101.988 74C45.6551 74 0 119.797 0 176.279C0 232.76 45.6672 278.558 101.988 278.558V211.417C82.6325 211.417 66.9376 195.677 66.9376 176.267L66.9498 176.279Z" fill="#E9E0C2"/>
<path d="M206.89 278.534C179.588 278.534 154.822 267.79 136.499 250.302V278.534H206.89C262.404 278.534 307.544 234.163 308.939 178.892C307.544 234.151 262.404 278.522 206.89 278.522V278.534Z" fill="#987701"/>
<path d="M193.493 74.8993C198.396 79.1771 202.873 83.9289 206.877 89.0575V74C202.339 74 197.874 74.3281 193.493 74.8993Z" fill="#987701"/>
<path d="M206.89 74V89.0696C219.789 105.585 227.725 126.16 228.465 148.57C236.692 154.999 241.982 165.013 241.982 176.279C241.982 195.687 226.268 211.425 206.89 211.425H136.499V250.327C154.809 267.803 179.588 278.558 206.89 278.558C262.404 278.558 307.532 234.188 308.939 178.928C308.964 178.053 309 177.178 309 176.291C309 119.792 263.278 74 206.89 74Z" fill="#987701"/>
</g>
<path d="M353.76 168.528C351.04 168.528 348.48 167.993 346.08 166.924C343.68 165.854 341.573 164.41 339.76 162.592C337.947 160.773 336.533 158.741 335.52 156.495C334.507 154.196 334 151.816 334 149.356C334 147.003 334.48 144.703 335.44 142.457C336.453 140.211 337.84 138.179 339.6 136.36C341.36 134.542 343.44 133.098 345.84 132.029C348.293 130.959 350.96 130.424 353.84 130.424C356.4 130.424 358.747 130.852 360.88 131.707C363.013 132.563 364.72 133.74 366 135.237C367.28 136.681 367.92 138.366 367.92 140.291C367.92 142.163 367.307 143.633 366.08 144.703C364.907 145.719 363.413 146.227 361.6 146.227C359.893 146.227 358.507 145.746 357.44 144.783C356.373 143.821 355.84 142.537 355.84 140.933C355.84 139.863 356.027 139.061 356.4 138.526C356.827 137.991 357.227 137.51 357.6 137.082C357.973 136.654 358.16 136.12 358.16 135.478C358.16 134.676 357.787 134.061 357.04 133.633C356.347 133.205 355.387 132.991 354.16 132.991C352.613 132.991 351.253 133.446 350.08 134.355C348.907 135.264 348 136.975 347.36 139.489C346.72 142.002 346.4 145.719 346.4 150.639C346.4 154.597 346.64 157.699 347.12 159.944C347.653 162.137 348.507 163.661 349.68 164.517C350.907 165.373 352.507 165.8 354.48 165.8C357.36 165.8 359.787 164.998 361.76 163.394C363.787 161.79 365.52 159.196 366.96 155.613H369.6C368.533 159.463 366.64 162.592 363.92 164.998C361.253 167.351 357.867 168.528 353.76 168.528Z" fill="#E9E0C2"/>
<path d="M425.083 168.528C422.309 168.528 419.722 168.073 417.322 167.164C414.922 166.255 412.816 164.945 411.003 163.233C409.189 161.522 407.749 159.517 406.683 157.217C405.669 154.864 405.163 152.27 405.163 149.436C405.163 146.655 405.669 144.115 406.683 141.815C407.749 139.462 409.189 137.457 411.003 135.799C412.816 134.087 414.922 132.777 417.322 131.868C419.722 130.905 422.309 130.424 425.083 130.424C427.856 130.424 430.442 130.905 432.842 131.868C435.242 132.777 437.349 134.087 439.162 135.799C441.029 137.457 442.469 139.462 443.483 141.815C444.549 144.115 445.082 146.655 445.082 149.436C445.082 152.27 444.549 154.864 443.483 157.217C442.469 159.517 441.029 161.522 439.162 163.233C437.349 164.945 435.242 166.255 432.842 167.164C430.442 168.073 427.856 168.528 425.083 168.528ZM425.083 165.72C426.949 165.72 428.442 165.293 429.562 164.437C430.683 163.581 431.482 162.003 431.962 159.704C432.443 157.351 432.683 153.955 432.683 149.516C432.683 145.077 432.443 141.682 431.962 139.328C431.482 136.975 430.683 135.371 429.562 134.515C428.442 133.66 426.949 133.232 425.083 133.232C423.216 133.232 421.723 133.66 420.602 134.515C419.536 135.371 418.763 136.975 418.283 139.328C417.803 141.682 417.563 145.077 417.563 149.516C417.563 153.955 417.803 157.351 418.283 159.704C418.763 162.003 419.536 163.581 420.602 164.437C421.723 165.293 423.216 165.72 425.083 165.72Z" fill="#E9E0C2"/>
<path d="M486.352 166.282V108.284H497.392V166.282H486.352ZM479.872 167.485V165.079H503.392V167.485H479.872ZM479.872 109.407V107H497.392V109.407H479.872Z" fill="#E9E0C2"/>
<path d="M542.28 166.282V132.67H553.32V166.282H542.28ZM535.8 167.485V165.079H558.52V167.485H535.8ZM535.8 133.793V131.387H553.32V133.793H535.8ZM547.16 122.081C545.454 122.081 543.96 121.44 542.68 120.156C541.4 118.873 540.76 117.375 540.76 115.664C540.76 113.899 541.4 112.375 542.68 111.091C543.96 109.808 545.454 109.166 547.16 109.166C548.92 109.166 550.44 109.808 551.72 111.091C553 112.375 553.64 113.899 553.64 115.664C553.64 117.375 553 118.873 551.72 120.156C550.44 121.44 548.92 122.081 547.16 122.081Z" fill="#E9E0C2"/>
<path d="M621.587 166.282V137.964C621.587 135.291 620.387 133.954 617.987 133.954C616.227 133.954 614.627 134.676 613.187 136.12C611.747 137.563 610.6 139.542 609.747 142.056C608.894 144.516 608.467 147.323 608.467 150.479L606.867 138.045H608.787C609.854 135.692 611.374 133.847 613.347 132.51C615.374 131.119 617.934 130.424 621.027 130.424C624.494 130.424 627.294 131.28 629.427 132.991C631.56 134.649 632.627 136.708 632.627 139.168V166.282H621.587ZM590.947 167.485V165.079H613.667V167.485H590.947ZM597.427 166.282V132.67H608.467V166.282H597.427ZM616.147 167.485V165.079H637.667V167.485H616.147ZM590.947 133.793V131.387H608.467V133.793H590.947Z" fill="#E9E0C2"/>
<path d="M350.853 238.64C348.027 238.64 345.333 237.864 342.773 236.311C340.213 234.709 338.107 232.489 336.453 229.656C334.853 226.768 334.053 223.426 334.053 219.626C334.053 215.83 334.853 212.515 336.453 209.68C338.053 206.792 340.133 204.573 342.693 203.022C345.253 201.418 347.947 200.616 350.773 200.616C353.28 200.616 355.467 201.15 357.333 202.22C359.253 203.289 360.64 204.626 361.493 206.231H363.413L361.813 218.425C361.813 213.344 360.933 209.627 359.173 207.274C357.467 204.921 355.28 203.744 352.613 203.744C351.173 203.744 350 204.172 349.093 205.027C348.187 205.883 347.52 207.461 347.093 209.76C346.667 212.06 346.453 215.376 346.453 219.708C346.453 223.985 346.64 227.274 347.013 229.574C347.44 231.874 348.107 233.453 349.013 234.308C349.92 235.111 351.093 235.512 352.533 235.512C355.2 235.512 357.413 234.334 359.173 231.982C360.933 229.627 361.813 225.913 361.813 220.83L363.413 233.025H361.493C360.64 234.627 359.28 235.966 357.413 237.035C355.547 238.104 353.36 238.64 350.853 238.64ZM361.813 237.677V235.269H379.333V237.677H361.813ZM361.813 236.473V178.475H372.853V236.473H361.813ZM353.893 179.598V177.191H372.853V179.598H353.893Z" fill="#E9E0C2"/>
<path d="M415.482 238.719C412.229 238.719 409.615 237.864 407.642 236.153C405.722 234.387 404.762 232.275 404.762 229.814V202.782H415.802V228.771C415.802 230.966 416.095 232.515 416.682 233.426C417.322 234.334 418.282 234.788 419.562 234.788C421.375 234.788 422.949 234.12 424.282 232.785C425.615 231.393 426.655 229.521 427.402 227.169C428.202 224.814 428.602 222.195 428.602 219.307L430.202 231.341H428.282C427.322 233.532 425.642 235.324 423.242 236.713C420.895 238.052 418.309 238.719 415.482 238.719ZM428.602 237.677V235.268H445.962V237.677H428.602ZM398.522 203.985V201.578H415.802V203.985H398.522ZM428.602 236.473V202.782H439.642V236.473H428.602ZM422.042 203.985V201.578H439.642V203.985H422.042Z" fill="#E9E0C2"/>
<path d="M495.825 236.473V208.156C495.825 205.482 494.624 204.145 492.224 204.145C490.464 204.145 488.864 204.867 487.424 206.311C485.985 207.755 484.838 209.734 483.985 212.247C483.131 214.707 482.705 217.514 482.705 220.669L481.105 208.236H483.024C484.091 205.883 485.611 204.038 487.584 202.701C489.611 201.311 492.171 200.616 495.264 200.616C498.731 200.616 501.531 201.471 503.665 203.183C505.798 204.84 506.864 206.899 506.864 209.359V236.473H495.825ZM465.185 237.677V235.269H487.905V237.677H465.185ZM471.664 236.473V202.861H482.705V236.473H471.664ZM490.385 237.677V235.269H511.904V237.677H490.385ZM465.185 203.985V201.578H482.705V203.985H465.185Z" fill="#E9E0C2"/>
<path d="M561.765 236.473V208.156C561.765 205.482 560.565 204.145 558.165 204.145C556.405 204.145 554.805 204.867 553.365 206.311C551.925 207.755 550.779 209.734 549.925 212.247C549.072 214.707 548.645 217.514 548.645 220.669L547.045 208.236H548.965C550.032 205.883 551.552 204.038 553.525 202.701C555.552 201.311 558.112 200.616 561.205 200.616C564.672 200.616 567.472 201.471 569.605 203.183C571.738 204.84 572.805 206.899 572.805 209.359V236.473H561.765ZM531.125 237.677V235.269H553.845V237.677H531.125ZM537.605 236.473V202.861H548.645V236.473H537.605ZM556.325 237.677V235.269H577.845V237.677H556.325ZM531.125 203.985V201.578H548.645V203.985H531.125Z" fill="#E9E0C2"/>
<path d="M619.066 238.719C616.292 238.719 613.679 238.183 611.226 237.114C608.826 236.045 606.692 234.601 604.826 232.785C603.012 230.966 601.599 228.906 600.586 226.607C599.572 224.307 599.066 221.899 599.066 219.386C599.066 216.284 599.866 213.317 601.466 210.482C603.066 207.594 605.332 205.242 608.266 203.423C611.199 201.552 614.639 200.616 618.586 200.616C621.786 200.616 624.639 201.257 627.146 202.541C629.706 203.824 631.706 205.669 633.146 208.076C634.639 210.429 635.386 213.237 635.386 216.497V217.382H607.626V214.975H624.106V210.081C624.106 205.482 622.186 203.183 618.346 203.183C616.692 203.183 615.359 203.69 614.346 204.707C613.332 205.723 612.586 207.461 612.106 209.921C611.679 212.327 611.466 215.643 611.466 219.869C611.466 224.199 611.706 227.541 612.186 229.896C612.666 232.196 613.492 233.772 614.666 234.627C615.839 235.482 617.439 235.913 619.466 235.913C622.292 235.913 624.852 235.216 627.146 233.828C629.492 232.436 631.439 230.028 632.986 226.607H635.626C634.506 230.298 632.452 233.239 629.466 235.43C626.532 237.624 623.066 238.719 619.066 238.719Z" fill="#E9E0C2"/>
<defs>
<clipPath id="clip0_601_190">
<rect width="309" height="352" fill="white"/>
</clipPath>
</defs>
</svg>
